<svg id="visual" viewBox="0 0 900 600" width="900" height="600" xmlns="http://www.w3.org/2000/svg" xmlns:xlink="http://www.w3.org/1999/xlink" version="1.1"><path d="M0 85L82 139L164 91L245 115L327 73L409 121L491 91L573 127L655 97L736 157L818 91L900 145L900 0L818 0L736 0L655 0L573 0L491 0L409 0L327 0L245 0L164 0L82 0L0 0Z" fill="#00cc8e"></path><path d="M0 169L82 199L164 181L245 181L327 127L409 223L491 193L573 223L655 157L736 199L818 145L900 193L900 143L818 89L736 155L655 95L573 125L491 89L409 119L327 71L245 113L164 89L82 137L0 83Z" fill="#00b98a"></path><path d="M0 385L82 367L164 409L245 319L327 325L409 469L491 421L573 319L655 433L736 373L818 283L900 421L900 191L818 143L736 197L655 155L573 221L491 191L409 221L327 125L245 179L164 179L82 197L0 167Z" fill="#00a784"></path><path d="M0 487L82 487L164 475L245 367L327 451L409 511L491 469L573 421L655 487L736 439L818 337L900 511L900 419L818 281L736 371L655 431L573 317L491 419L409 467L327 323L245 317L164 407L82 365L0 383Z" fill="#00957c"></path><path d="M0 601L82 601L164 601L245 601L327 601L409 601L491 601L573 601L655 601L736 601L818 601L900 601L900 509L818 335L736 437L655 485L573 419L491 467L409 509L327 449L245 365L164 473L82 485L0 485Z" fill="#038373"></path></svg>